<?xml version="1.0" encoding="UTF-8"?>
<svg version="1.1" xmlns="http://www.w3.org/2000/svg" width="300" height="300">
<path d="M0 0 C99 0 198 0 300 0 C300 99 300 198 300 300 C201 300 102 300 0 300 C0 201 0 102 0 0 Z " fill="#C40F2E" transform="translate(0,0)"/>
<path d="M0 0 C99 0 198 0 300 0 C300 99 300 198 300 300 C201 300 102 300 0 300 C0 201 0 102 0 0 Z M30 25 C30 28.3 30 31.6 30 35 C26.7 35 23.4 35 20 35 C20 107.6 20 180.2 20 255 C23.3 255 26.6 255 30 255 C30 258.3 30 261.6 30 265 C33.3 265 36.6 265 40 265 C40 267.97 40 270.94 40 274 C115.57 274 191.14 274 269 274 C269 270.7 269 267.4 269 264 C272.3 264 275.6 264 279 264 C279 208.23 279 152.46 279 95 C276.03 95 273.06 95 270 95 C270 91.7 270 88.4 270 85 C266.37 85 262.74 85 259 85 C259 81.7 259 78.4 259 75 C242.83 75 226.66 75 210 75 C210 71.7 210 68.4 210 65 C206.7 65 203.4 65 200 65 C200 61.7 200 58.4 200 55 C189.77 55 179.54 55 169 55 C169 48.4 169 41.8 169 35 C166.03 35 163.06 35 160 35 C160 31.7 160 28.4 160 25 C117.1 25 74.2 25 30 25 Z " fill="#FDFDFD" transform="translate(0,0)"/>
<path d="M0 0 C39.6 0 79.2 0 120 0 C120 16.5 120 33 120 50 C116.7 50 113.4 50 110 50 C110 53.3 110 56.6 110 60 C113.3 60 116.6 60 120 60 C120 102.9 120 145.8 120 190 C116.7 190 113.4 190 110 190 C110 193.3 110 196.6 110 200 C113.3 200 116.6 200 120 200 C120 206.6 120 213.2 120 220 C116.7 220 113.4 220 110 220 C110 216.7 110 213.4 110 210 C103.4 210 96.8 210 90 210 C90 206.7 90 203.4 90 200 C93.3 200 96.6 200 100 200 C100 196.7 100 193.4 100 190 C96.7 190 93.4 190 90 190 C90 186.7 90 183.4 90 180 C86.7 180 83.4 180 80 180 C80 183.3 80 186.6 80 190 C76.7 190 73.4 190 70 190 C70 193.3 70 196.6 70 200 C72.97 200 75.94 200 79 200 C79 203.3 79 206.6 79 210 C72.73 210 66.46 210 60 210 C60 203.07 60 196.14 60 189 C50.1 189 40.2 189 30 189 C30 186.03 30 183.06 30 180 C26.7 180 23.4 180 20 180 C20 176.7 20 173.4 20 170 C16.7 170 13.4 170 10 170 C10 133.7 10 97.4 10 60 C26.5 60 43 60 60 60 C60 56.7 60 53.4 60 50 C40.2 50 20.4 50 0 50 C0 33.5 0 17 0 0 Z " fill="#E30A2E" transform="translate(30,35)"/>
<path d="M0 0 C42.9 0 85.8 0 130 0 C130 3.3 130 6.6 130 10 C132.97 10 135.94 10 139 10 C139 16.6 139 23.2 139 30 C149.23 30 159.46 30 170 30 C170 33.3 170 36.6 170 40 C156.8 40 143.6 40 130 40 C130 102.7 130 165.4 130 230 C163 230 196 230 230 230 C230 233.3 230 236.6 230 240 C154.1 240 78.2 240 0 240 C0 236.7 0 233.4 0 230 C-3.3 230 -6.6 230 -10 230 C-10 157.4 -10 84.8 -10 10 C-6.7 10 -3.4 10 0 10 C0 6.7 0 3.4 0 0 Z M0 10 C0 26.5 0 43 0 60 C19.8 60 39.6 60 60 60 C60 63.3 60 66.6 60 70 C43.5 70 27 70 10 70 C10 106.3 10 142.6 10 180 C13.3 180 16.6 180 20 180 C20 183.3 20 186.6 20 190 C23.3 190 26.6 190 30 190 C30 192.97 30 195.94 30 199 C39.9 199 49.8 199 60 199 C60 205.93 60 212.86 60 220 C66.27 220 72.54 220 79 220 C79 216.7 79 213.4 79 210 C76.03 210 73.06 210 70 210 C70 206.7 70 203.4 70 200 C73.3 200 76.6 200 80 200 C80 196.7 80 193.4 80 190 C83.3 190 86.6 190 90 190 C90 193.3 90 196.6 90 200 C93.3 200 96.6 200 100 200 C100 203.3 100 206.6 100 210 C96.7 210 93.4 210 90 210 C90 213.3 90 216.6 90 220 C96.6 220 103.2 220 110 220 C110 223.3 110 226.6 110 230 C113.3 230 116.6 230 120 230 C120 223.4 120 216.8 120 210 C116.7 210 113.4 210 110 210 C110 206.7 110 203.4 110 200 C113.3 200 116.6 200 120 200 C120 157.1 120 114.2 120 70 C116.7 70 113.4 70 110 70 C110 66.7 110 63.4 110 60 C113.3 60 116.6 60 120 60 C120 43.5 120 27 120 10 C80.4 10 40.8 10 0 10 Z " fill="#C50B29" transform="translate(30,25)"/>
<path d="M0 0 C0.33 0 0.66 0 1 0 C1 3.3 1 6.6 1 10 C17.17 10 33.34 10 50 10 C50 66.1 50 122.2 50 180 C47.03 180 44.06 180 41 180 C41 173.4 41 166.8 41 160 C30.77 160 20.54 160 10 160 C10 166.6 10 173.2 10 180 C7.03 180 4.06 180 1 180 C1 176.7 1 173.4 1 170 C-2.3 170 -5.6 170 -9 170 C-9 166.37 -9 162.74 -9 159 C-12.3 159 -15.6 159 -19 159 C-19 156.36 -19 153.72 -19 151 C-28.9 150.505 -28.9 150.505 -39 150 C-39 133.5 -39 117 -39 100 C-12.6 100 13.8 100 41 100 C41 93.07 41 86.14 41 79 C14.6 79 -11.8 79 -39 79 C-39 76.03 -39 73.06 -39 70 C-12.6 70 13.8 70 41 70 C41 59.77 41 49.54 41 39 C14.6 39 -11.8 39 -39 39 C-39 36.03 -39 33.06 -39 30 C-35.7 30 -32.4 30 -29 30 C-29 26.7 -29 23.4 -29 20 C-25.7 20 -22.4 20 -19 20 C-19 16.7 -19 13.4 -19 10 C-12.73 10 -6.46 10 0 10 C0 6.7 0 3.4 0 0 Z " fill="#DB0A2C" transform="translate(209,65)"/>
<path d="M0 0 C29.7 0 59.4 0 90 0 C90 29.7 90 59.4 90 90 C63.6 90 37.2 90 10 90 C10 86.7 10 83.4 10 80 C6.7 80 3.4 80 0 80 C0 53.6 0 27.2 0 0 Z " fill="#DDDDDD" transform="translate(40,105)"/>
<path d="M0 0 C42.9 0 85.8 0 130 0 C130 3.3 130 6.6 130 10 C132.97 10 135.94 10 139 10 C139 16.6 139 23.2 139 30 C149.23 30 159.46 30 170 30 C170 33.3 170 36.6 170 40 C156.8 40 143.6 40 130 40 C130 102.7 130 165.4 130 230 C163 230 196 230 230 230 C230 233.3 230 236.6 230 240 C154.1 240 78.2 240 0 240 C0 236.7 0 233.4 0 230 C39.6 230 79.2 230 120 230 C120 223.4 120 216.8 120 210 C116.7 210 113.4 210 110 210 C110 206.7 110 203.4 110 200 C113.3 200 116.6 200 120 200 C120 157.1 120 114.2 120 70 C116.7 70 113.4 70 110 70 C110 66.7 110 63.4 110 60 C113.3 60 116.6 60 120 60 C120 43.5 120 27 120 10 C80.4 10 40.8 10 0 10 C0 6.7 0 3.4 0 0 Z " fill="#88051B" transform="translate(30,25)"/>
<path d="M0 0 C3.3 0 6.6 0 10 0 C10 3.3 10 6.6 10 10 C12.97 10 15.94 10 19 10 C19 65.77 19 121.54 19 179 C15.7 179 12.4 179 9 179 C9 182.3 9 185.6 9 189 C-66.57 189 -142.14 189 -220 189 C-220 186.03 -220 183.06 -220 180 C-147.4 180 -74.8 180 0 180 C0 120.6 0 61.2 0 0 Z " fill="#24386B" transform="translate(260,85)"/>
<path d="M0 0 C39.6 0 79.2 0 120 0 C120 9.9 120 19.8 120 30 C103.5 30 87 30 70 30 C70 33.3 70 36.6 70 40 C66.7 40 63.4 40 60 40 C60 43.3 60 46.6 60 50 C40.2 50 20.4 50 0 50 C0 33.5 0 17 0 0 Z " fill="#F00C32" transform="translate(30,35)"/>
<path d="M0 0 C0.33 0 0.66 0 1 0 C1 3.3 1 6.6 1 10 C17.17 10 33.34 10 50 10 C50 46.3 50 82.6 50 120 C47.03 120 44.06 120 41 120 C41 106.47 41 92.94 41 79 C14.6 79 -11.8 79 -39 79 C-39 76.03 -39 73.06 -39 70 C-12.6 70 13.8 70 41 70 C41 59.77 41 49.54 41 39 C14.6 39 -11.8 39 -39 39 C-39 36.03 -39 33.06 -39 30 C-35.7 30 -32.4 30 -29 30 C-29 26.7 -29 23.4 -29 20 C-25.7 20 -22.4 20 -19 20 C-19 16.7 -19 13.4 -19 10 C-12.73 10 -6.46 10 0 10 C0 6.7 0 3.4 0 0 Z " fill="#F20B31" transform="translate(209,65)"/>
<path d="M0 0 C23.1 0 46.2 0 70 0 C70 16.5 70 33 70 50 C46.9 50 23.8 50 0 50 C0 33.5 0 17 0 0 Z " fill="#222222" transform="translate(50,115)"/>
<path d="M0 0 C26.4 0 52.8 0 80 0 C80 9.9 80 19.8 80 30 C53.6 30 27.2 30 0 30 C0 20.1 0 10.2 0 0 Z " fill="#3B3738" transform="translate(170,105)"/>
<path d="M0 0 C75.9 0 151.8 0 230 0 C230 3.3 230 6.6 230 10 C154.1 10 78.2 10 0 10 C0 6.7 0 3.4 0 0 Z " fill="#010204" transform="translate(30,255)"/>
<path d="M0 0 C3.3 0 6.6 0 10 0 C10 72.27 10 144.54 10 219 C6.7 219 3.4 219 0 219 C0 146.73 0 74.46 0 0 Z " fill="#060001" transform="translate(20,35)"/>
<path d="M0 0 C42.9 0 85.8 0 130 0 C130 3.3 130 6.6 130 10 C132.97 10 135.94 10 139 10 C139 16.6 139 23.2 139 30 C148.9 30 158.8 30 169 30 C169 32.97 169 35.94 169 39 C152.83 39.33 136.66 39.66 120 40 C120 30.1 120 20.2 120 10 C80.4 10 40.8 10 0 10 C0 6.7 0 3.4 0 0 Z " fill="#060001" transform="translate(30,25)"/>
<path d="M0 0 C0.33 0 0.66 0 1 0 C1 3.3 1 6.6 1 10 C17.17 10 33.34 10 50 10 C50 13.3 50 16.6 50 20 C33.83 20 17.66 20 1 20 C1 23.3 1 26.6 1 30 C14.2 30 27.4 30 41 30 C41 32.97 41 35.94 41 39 C14.6 39 -11.8 39 -39 39 C-39 36.03 -39 33.06 -39 30 C-35.7 30 -32.4 30 -29 30 C-29 26.7 -29 23.4 -29 20 C-25.7 20 -22.4 20 -19 20 C-19 16.7 -19 13.4 -19 10 C-12.73 10 -6.46 10 0 10 C0 6.7 0 3.4 0 0 Z " fill="#DB0A2D" transform="translate(209,65)"/>
<path d="M0 0 C3.3 0 6.6 0 10 0 C10 56.1 10 112.2 10 170 C6.7 170 3.4 170 0 170 C0 113.9 0 57.8 0 0 Z " fill="#010204" transform="translate(260,85)"/>
<path d="M0 0 C26.4 0 52.8 0 80 0 C80 6.6 80 13.2 80 20 C53.6 20 27.2 20 0 20 C0 13.4 0 6.8 0 0 Z " fill="#2D9FEB" transform="translate(170,145)"/>
<path d="M0 0 C3.3 0 6.6 0 10 0 C10 3.3 10 6.6 10 10 C16.6 10 23.2 10 30 10 C30 13.3 30 16.6 30 20 C33.3 20 36.6 20 40 20 C40 23.3 40 26.6 40 30 C10.3 30 -19.4 30 -50 30 C-50 26.7 -50 23.4 -50 20 C-33.5 20 -17 20 0 20 C0 13.4 0 6.8 0 0 Z " fill="#DC0D30" transform="translate(90,75)"/>
<path d="M0 0 C0.33 0 0.66 0 1 0 C1 29.7 1 59.4 1 90 C-25.4 90 -51.8 90 -79 90 C-79 86.7 -79 83.4 -79 80 C-76.03 80 -73.06 80 -70 80 C-70 76.7 -70 73.4 -70 70 C-66.37 70 -62.74 70 -59 70 C-59 73.3 -59 76.6 -59 80 C-49.43 80 -39.86 80 -30 80 C-30 76.7 -30 73.4 -30 70 C-23.07 70 -16.14 70 -9 70 C-9 73.3 -9 76.6 -9 80 C-6.03 80 -3.06 80 0 80 C0 53.6 0 27.2 0 0 Z " fill="#D0C8C9" transform="translate(129,105)"/>
<path d="M0 0 C2.97 0 5.94 0 9 0 C9 42.57 9 85.14 9 129 C6.03 129 3.06 129 0 129 C0 86.43 0 43.86 0 0 Z " fill="#22345F" transform="translate(270,95)"/>
<path d="M0 0 C2.97 0 5.94 0 9 0 C9 42.57 9 85.14 9 129 C6.03 129 3.06 129 0 129 C0 86.43 0 43.86 0 0 Z " fill="#FF0D35" transform="translate(140,95)"/>
<path d="M0 0 C13.2 0 26.4 0 40 0 C40 3.3 40 6.6 40 10 C36.7 10 33.4 10 30 10 C30 13.3 30 16.6 30 20 C26.7 20 23.4 20 20 20 C20 22.97 20 25.94 20 29 C6.8 29 -6.4 29 -20 29 C-20 26.03 -20 23.06 -20 20 C-16.7 20 -13.4 20 -10 20 C-10 16.7 -10 13.4 -10 10 C-6.7 10 -3.4 10 0 10 C0 6.7 0 3.4 0 0 Z " fill="#212323" transform="translate(200,105)"/>
<path d="M0 0 C0.33 0 0.66 0 1 0 C1 16.5 1 33 1 50 C-22.1 50 -45.2 50 -69 50 C-69 49.67 -69 49.34 -69 49 C-59.1 49 -49.2 49 -39 49 C-39 46.03 -39 43.06 -39 40 C-35.7 40 -32.4 40 -29 40 C-29 36.7 -29 33.4 -29 30 C-25.7 30 -22.4 30 -19 30 C-19 26.7 -19 23.4 -19 20 C-15.7 20 -12.4 20 -9 20 C-9 16.7 -9 13.4 -9 10 C-6.03 10 -3.06 10 0 10 C0 6.7 0 3.4 0 0 Z " fill="#3E3E3E" transform="translate(119,115)"/>
<path d="M0 0 C12.87 0 25.74 0 39 0 C39 2.97 39 5.94 39 9 C35.7 9 32.4 9 29 9 C29 12.3 29 15.6 29 19 C25.7 19 22.4 19 19 19 C19 22.3 19 25.6 19 29 C15.7 29 12.4 29 9 29 C9 32.3 9 35.6 9 39 C6.03 39 3.06 39 0 39 C0 26.13 0 13.26 0 0 Z " fill="#383838" transform="translate(51,116)"/>
<path d="M0 0 C9.9 0 19.8 0 30 0 C30 9.9 30 19.8 30 30 C20.1 30 10.2 30 0 30 C0 20.1 0 10.2 0 0 Z " fill="#28ABFA" transform="translate(40,45)"/>
<path d="M0 0 C26.07 0 52.14 0 79 0 C79 3.3 79 6.6 79 10 C53.26 10 27.52 10 1 10 C1 12.97 1 15.94 1 19 C0.67 19 0.34 19 0 19 C0 12.73 0 6.46 0 0 Z " fill="#24AAFC" transform="translate(170,145)"/>
<path d="M0 0 C26.4 0 52.8 0 80 0 C80 2.97 80 5.94 80 9 C53.6 9 27.2 9 0 9 C0 6.03 0 3.06 0 0 Z " fill="#DD082B" transform="translate(170,135)"/>
<path d="M0 0 C9.9 0 19.8 0 30 0 C30 6.6 30 13.2 30 20 C20.1 20 10.2 20 0 20 C0 13.4 0 6.8 0 0 Z " fill="#52AC5E" transform="translate(60,225)"/>
<path d="M0 0 C9.9 0 19.8 0 30 0 C30 6.6 30 13.2 30 20 C20.1 20 10.2 20 0 20 C0 13.4 0 6.8 0 0 Z " fill="#0A2421" transform="translate(220,225)"/>
<path d="M0 0 C9.9 0 19.8 0 30 0 C30 6.6 30 13.2 30 20 C20.1 20 10.2 20 0 20 C0 13.4 0 6.8 0 0 Z " fill="#092421" transform="translate(170,225)"/>
<path d="M0 0 C9.9 0 19.8 0 30 0 C30 6.6 30 13.2 30 20 C20.1 20 10.2 20 0 20 C0 13.4 0 6.8 0 0 Z " fill="#DBD9D9" transform="translate(170,195)"/>
<path d="M0 0 C19.8 0 39.6 0 60 0 C60 3.3 60 6.6 60 10 C40.2 10 20.4 10 0 10 C0 6.7 0 3.4 0 0 Z " fill="#89061C" transform="translate(30,85)"/>
<path d="M0 0 C3.3 0 6.6 0 10 0 C10 3.3 10 6.6 10 10 C13.3 10 16.6 10 20 10 C20 13.3 20 16.6 20 20 C16.7 20 13.4 20 10 20 C10 23.3 10 26.6 10 30 C6.7 30 3.4 30 0 30 C0 26.7 0 23.4 0 20 C-3.3 20 -6.6 20 -10 20 C-10 16.7 -10 13.4 -10 10 C-6.7 10 -3.4 10 0 10 C0 6.7 0 3.4 0 0 Z " fill="#001916" transform="translate(110,215)"/>
<path d="M0 0 C16.17 0 32.34 0 49 0 C49 3.3 49 6.6 49 10 C32.83 10 16.66 10 0 10 C0 6.7 0 3.4 0 0 Z " fill="#060001" transform="translate(210,75)"/>
<path d="M0 0 C0.33 0 0.66 0 1 0 C1 3.3 1 6.6 1 10 C-12.2 10 -25.4 10 -39 10 C-39 19.9 -39 29.8 -39 40 C-45.6 40 -52.2 40 -59 40 C-59 36.7 -59 33.4 -59 30 C-55.7 30 -52.4 30 -49 30 C-49.01740234 27.85177734 -49.01740234 27.85177734 -49.03515625 25.66015625 C-49.04453255 23.79427213 -49.05363292 21.92838661 -49.0625 20.0625 C-49.07087891 19.11697266 -49.07925781 18.17144531 -49.08789062 17.19726562 C-49.09111328 16.29814453 -49.09433594 15.39902344 -49.09765625 14.47265625 C-49.10289307 13.64000244 -49.10812988 12.80734863 -49.11352539 11.94946289 C-49 10 -49 10 -48 9 C-46.49581261 8.90688111 -44.98728644 8.88253972 -43.48022461 8.88647461 C-42.03884377 8.88658791 -42.03884377 8.88658791 -40.56834412 8.88670349 C-39.00117393 8.89444542 -39.00117393 8.89444542 -37.40234375 8.90234375 C-36.33834854 8.9037587 -35.27435333 8.90517365 -34.17811584 8.90663147 C-30.76454917 8.91224936 -27.351047 8.92480489 -23.9375 8.9375 C-21.62955824 8.94251269 -19.32161545 8.947076 -17.01367188 8.95117188 C-11.34242289 8.96222461 -5.6712224 8.97950123 0 9 C0 6.03 0 3.06 0 0 Z " fill="#77081B" transform="translate(199,55)"/>
<path d="M0 0 C13.2 0 26.4 0 40 0 C40 3.3 40 6.6 40 10 C26.8 10 13.6 10 0 10 C0 6.7 0 3.4 0 0 Z " fill="#8A061C" transform="translate(100,65)"/>
<path d="M0 0 C6.6 0 13.2 0 20 0 C20 6.6 20 13.2 20 20 C13.4 20 6.8 20 0 20 C0 13.4 0 6.8 0 0 Z " fill="#A0D5F7" transform="translate(50,55)"/>
<path d="M0 0 C2.97 0 5.94 0 9 0 C9 42.57 9 85.14 9 129 C8.67 129 8.34 129 8 129 C8 96 8 63 8 29 C5.36 29 2.72 29 0 29 C0 19.43 0 9.86 0 0 Z " fill="#1B2C55" transform="translate(270,95)"/>
<path d="M0 0 C9.57 0 19.14 0 29 0 C29 2.97 29 5.94 29 9 C19.43 9 9.86 9 0 9 C0 6.03 0 3.06 0 0 Z " fill="#002E29" transform="translate(220,235)"/>
<path d="M0 0 C9.57 0 19.14 0 29 0 C29 2.97 29 5.94 29 9 C19.43 9 9.86 9 0 9 C0 6.03 0 3.06 0 0 Z " fill="#002E29" transform="translate(170,235)"/>
<path d="M0 0 C2.97 0 5.94 0 9 0 C9 6.27 9 12.54 9 19 C6.03 19 3.06 19 0 19 C0 16.36 0 13.72 0 11 C-13.2 11 -26.4 11 -40 11 C-40 10.67 -40 10.34 -40 10 C-26.8 10 -13.6 10 0 10 C0 6.7 0 3.4 0 0 Z " fill="#FE0D34" transform="translate(140,65)"/>
<path d="M0 0 C3.3 0 6.6 0 10 0 C10 6.6 10 13.2 10 20 C6.7 20 3.4 20 0 20 C0 13.4 0 6.8 0 0 Z " fill="#F90C34" transform="translate(140,235)"/>
<path d="M0 0 C6.6 0 13.2 0 20 0 C20 3.3 20 6.6 20 10 C13.4 10 6.8 10 0 10 C0 6.7 0 3.4 0 0 Z " fill="#4C0410" transform="translate(140,225)"/>
<path d="M0 0 C6.6 0 13.2 0 20 0 C20 3.3 20 6.6 20 10 C13.4 10 6.8 10 0 10 C0 6.7 0 3.4 0 0 Z " fill="#0D1816" transform="translate(230,175)"/>
<path d="M0 0 C6.6 0 13.2 0 20 0 C20 3.3 20 6.6 20 10 C13.4 10 6.8 10 0 10 C0 6.7 0 3.4 0 0 Z " fill="#0D1816" transform="translate(200,175)"/>
<path d="M0 0 C6.6 0 13.2 0 20 0 C20 3.3 20 6.6 20 10 C13.4 10 6.8 10 0 10 C0 6.7 0 3.4 0 0 Z " fill="#A7A7A7" transform="translate(100,175)"/>
<path d="M0 0 C6.6 0 13.2 0 20 0 C20 3.3 20 6.6 20 10 C13.4 10 6.8 10 0 10 C0 6.7 0 3.4 0 0 Z " fill="#4D0410" transform="translate(140,85)"/>
<path d="M0 0 C6.6 0 13.2 0 20 0 C20 3.3 20 6.6 20 10 C13.4 10 6.8 10 0 10 C0 6.7 0 3.4 0 0 Z " fill="#5DB865" transform="translate(90,45)"/>
<path d="M0 0 C2.97 0 5.94 0 9 0 C9 6.6 9 13.2 9 20 C6.03 20 3.06 20 0 20 C0 13.4 0 6.8 0 0 Z " fill="#1B2A51" transform="translate(160,35)"/>
<path d="M0 0 C3.3 0 6.6 0 10 0 C10 3.3 10 6.6 10 10 C6.7 10 3.4 10 0 10 C0 6.7 0 3.4 0 0 Z " fill="#0D2F2B" transform="translate(110,235)"/>
<path d="M0 0 C3.3 0 6.6 0 10 0 C10 3.3 10 6.6 10 10 C6.7 10 3.4 10 0 10 C0 6.7 0 3.4 0 0 Z " fill="#0D302B" transform="translate(120,225)"/>
<path d="M0 0 C3.3 0 6.6 0 10 0 C10 3.3 10 6.6 10 10 C6.7 10 3.4 10 0 10 C0 6.7 0 3.4 0 0 Z " fill="#06302A" transform="translate(100,225)"/>
<path d="M0 0 C3.3 0 6.6 0 10 0 C10 3.3 10 6.6 10 10 C6.7 10 3.4 10 0 10 C0 6.7 0 3.4 0 0 Z " fill="#08302A" transform="translate(110,215)"/>
<path d="M0 0 C3.3 0 6.6 0 10 0 C10 3.3 10 6.6 10 10 C6.7 10 3.4 10 0 10 C0 6.7 0 3.4 0 0 Z " fill="#0B1816" transform="translate(40,215)"/>
<path d="M0 0 C3.3 0 6.6 0 10 0 C10 3.3 10 6.6 10 10 C6.7 10 3.4 10 0 10 C0 6.7 0 3.4 0 0 Z " fill="#11628F" transform="translate(80,205)"/>
<path d="M0 0 C3.3 0 6.6 0 10 0 C10 3.3 10 6.6 10 10 C6.7 10 3.4 10 0 10 C0 6.7 0 3.4 0 0 Z " fill="#F9002B" transform="translate(60,205)"/>
<path d="M0 0 C3.3 0 6.6 0 10 0 C10 3.3 10 6.6 10 10 C6.7 10 3.4 10 0 10 C0 6.7 0 3.4 0 0 Z " fill="#FDD91B" transform="translate(240,195)"/>
<path d="M0 0 C3.3 0 6.6 0 10 0 C10 3.3 10 6.6 10 10 C6.7 10 3.4 10 0 10 C0 6.7 0 3.4 0 0 Z " fill="#F81031" transform="translate(60,175)"/>
<path d="M0 0 C3.3 0 6.6 0 10 0 C10 3.3 10 6.6 10 10 C6.7 10 3.4 10 0 10 C0 6.7 0 3.4 0 0 Z " fill="#CECBCC" transform="translate(40,175)"/>
<path d="M0 0 C3.3 0 6.6 0 10 0 C10 3.3 10 6.6 10 10 C6.7 10 3.4 10 0 10 C0 6.7 0 3.4 0 0 Z " fill="#8B061C" transform="translate(90,75)"/>
<path d="M0 0 C3.3 0 6.6 0 10 0 C10 3.3 10 6.6 10 10 C6.7 10 3.4 10 0 10 C0 6.7 0 3.4 0 0 Z " fill="#1F6598" transform="translate(60,65)"/>
<path d="M0 0 C3.3 0 6.6 0 10 0 C10 3.3 10 6.6 10 10 C6.7 10 3.4 10 0 10 C0 6.7 0 3.4 0 0 Z " fill="#1E6A9E" transform="translate(40,65)"/>
<path d="M0 0 C3.3 0 6.6 0 10 0 C10 3.3 10 6.6 10 10 C6.7 10 3.4 10 0 10 C0 6.7 0 3.4 0 0 Z " fill="#A0D5F8" transform="translate(60,55)"/>
<path d="M0 0 C3.3 0 6.6 0 10 0 C10 3.3 10 6.6 10 10 C6.7 10 3.4 10 0 10 C0 6.7 0 3.4 0 0 Z " fill="#DCDDDD" transform="translate(50,55)"/>
<path d="M0 0 C3.3 0 6.6 0 10 0 C10 3.3 10 6.6 10 10 C6.7 10 3.4 10 0 10 C0 6.7 0 3.4 0 0 Z " fill="#FAE243" transform="translate(90,45)"/>
<path d="M0 0 C3.3 0 6.6 0 10 0 C10 3.3 10 6.6 10 10 C6.7 10 3.4 10 0 10 C0 6.7 0 3.4 0 0 Z " fill="#206B9E" transform="translate(60,45)"/>
<path d="M0 0 C3.3 0 6.6 0 10 0 C10 3.3 10 6.6 10 10 C6.7 10 3.4 10 0 10 C0 6.7 0 3.4 0 0 Z " fill="#2AAAFA" transform="translate(50,45)"/>
<path d="M0 0 C3.3 0 6.6 0 10 0 C10 3.3 10 6.6 10 10 C6.7 10 3.4 10 0 10 C0 6.7 0 3.4 0 0 Z " fill="#146DA3" transform="translate(40,45)"/>
<path d="M0 0 C6.27 0 12.54 0 19 0 C19 2.97 19 5.94 19 9 C16.03 9 13.06 9 10 9 C10 6.36 10 3.72 10 1 C7.03 1 4.06 1 1 1 C1 3.64 1 6.28 1 9 C0.67 9 0.34 9 0 9 C0 6.03 0 3.06 0 0 Z " fill="#280108" transform="translate(140,85)"/>
<path d="M0 0 C6.27 0 12.54 0 19 0 C19 2.97 19 5.94 19 9 C16.03 9 13.06 9 10 9 C10 6.36 10 3.72 10 1 C6.7 1 3.4 1 0 1 C0 0.67 0 0.34 0 0 Z " fill="#260107" transform="translate(140,225)"/>
<path d="M0 0 C2.97 0 5.94 0 9 0 C9 3.3 9 6.6 9 10 C6.03 10 3.06 10 0 10 C0 6.7 0 3.4 0 0 Z " fill="#050001" transform="translate(200,65)"/>
<path d="M0 0 C2.97 0 5.94 0 9 0 C9 3.3 9 6.6 9 10 C6.03 10 3.06 10 0 10 C0 6.7 0 3.4 0 0 Z " fill="#FE0029" transform="translate(80,45)"/>
</svg>
