<?xml version="1.0" encoding="UTF-8"?>
<svg version="1.1" xmlns="http://www.w3.org/2000/svg" width="769" height="769">
<path d="M0 0 C95.04 0 190.08 0 288 0 C288 15.84 288 31.68 288 48 C303.84 48 319.68 48 336 48 C336 63.84 336 79.68 336 96 C351.84 96 367.68 96 384 96 C384 127.68 384 159.36 384 192 C399.84 192 415.68 192 432 192 C432 207.84 432 223.68 432 240 C447.84 240 463.68 240 480 240 C480 287.52 480 335.04 480 384 C464.16 384 448.32 384 432 384 C432 399.84 432 415.68 432 432 C447.84 432 463.68 432 480 432 C480 447.84 480 463.68 480 480 C495.84 480 511.68 480 528 480 C528 511.68 528 543.36 528 576 C512.16 576 496.32 576 480 576 C480 591.84 480 607.68 480 624 C464.16 624 448.32 624 432 624 C432 639.84 432 655.68 432 672 C416.16 672 400.32 672 384 672 C384 687.84 384 703.68 384 720 C399.84 720 415.68 720 432 720 C432 735.84 432 751.68 432 768 C352.8 768 273.6 768 192 768 C192 752.16 192 736.32 192 720 C160.32 720 128.64 720 96 720 C96 735.84 96 751.68 96 768 C16.8 768 -62.4 768 -144 768 C-144 752.16 -144 736.32 -144 720 C-128.16 720 -112.32 720 -96 720 C-96 704.16 -96 688.32 -96 672 C-111.84 672 -127.68 672 -144 672 C-144 656.16 -144 640.32 -144 624 C-159.84 624 -175.68 624 -192 624 C-192 608.16 -192 592.32 -192 576 C-207.84 576 -223.68 576 -240 576 C-240 544.32 -240 512.64 -240 480 C-224.16 480 -208.32 480 -192 480 C-192 464.16 -192 448.32 -192 432 C-176.16 432 -160.32 432 -144 432 C-144 416.16 -144 400.32 -144 384 C-159.84 384 -175.68 384 -192 384 C-192 336.48 -192 288.96 -192 240 C-176.16 240 -160.32 240 -144 240 C-144 224.16 -144 208.32 -144 192 C-128.16 192 -112.32 192 -96 192 C-96 160.32 -96 128.64 -96 96 C-111.84 96 -127.68 96 -144 96 C-144 80.16 -144 64.32 -144 48 C-96.48 48 -48.96 48 0 48 C0 32.16 0 16.32 0 0 Z " fill="#FFFFFF" transform="translate(241,1)"/>
<path d="M0 0 C95.04 0 190.08 0 288 0 C288 15.84 288 31.68 288 48 C272.16 48 256.32 48 240 48 C240 95.52 240 143.04 240 192 C287.52 192 335.04 192 384 192 C384 207.84 384 223.68 384 240 C399.84 240 415.68 240 432 240 C432 255.84 432 271.68 432 288 C352.8 288 273.6 288 192 288 C192 272.16 192 256.32 192 240 C160.32 240 128.64 240 96 240 C96 255.84 96 271.68 96 288 C16.8 288 -62.4 288 -144 288 C-144 272.16 -144 256.32 -144 240 C-128.16 240 -112.32 240 -96 240 C-96 224.16 -96 208.32 -96 192 C-48.48 192 -0.96 192 48 192 C48 144.48 48 96.96 48 48 C32.16 48 16.32 48 0 48 C0 32.16 0 16.32 0 0 Z " fill="#000000" transform="translate(241,481)"/>
<path d="M0 0 C95.04 0 190.08 0 288 0 C288 15.84 288 31.68 288 48 C303.84 48 319.68 48 336 48 C336 63.84 336 79.68 336 96 C351.84 96 367.68 96 384 96 C384 127.68 384 159.36 384 192 C399.84 192 415.68 192 432 192 C432 207.84 432 223.68 432 240 C416.16 240 400.32 240 384 240 C384 255.84 384 271.68 384 288 C368.16 288 352.32 288 336 288 C336 256.32 336 224.64 336 192 C320.16 192 304.32 192 288 192 C288 176.16 288 160.32 288 144 C240.48 144 192.96 144 144 144 C144 159.84 144 175.68 144 192 C128.16 192 112.32 192 96 192 C96 176.16 96 160.32 96 144 C64.32 144 32.64 144 0 144 C0 159.84 0 175.68 0 192 C-15.84 192 -31.68 192 -48 192 C-48 223.68 -48 255.36 -48 288 C-63.84 288 -79.68 288 -96 288 C-96 272.16 -96 256.32 -96 240 C-111.84 240 -127.68 240 -144 240 C-144 224.16 -144 208.32 -144 192 C-128.16 192 -112.32 192 -96 192 C-96 160.32 -96 128.64 -96 96 C-111.84 96 -127.68 96 -144 96 C-144 80.16 -144 64.32 -144 48 C-96.48 48 -48.96 48 0 48 C0 32.16 0 16.32 0 0 Z " fill="#FFFFFF" transform="translate(241,1)"/>
<path d="M0 0 C31.68 0 63.36 0 96 0 C96 15.84 96 31.68 96 48 C111.84 48 127.68 48 144 48 C144 79.68 144 111.36 144 144 C159.84 144 175.68 144 192 144 C192 191.52 192 239.04 192 288 C128.64 288 65.28 288 0 288 C0 272.16 0 256.32 0 240 C-15.84 240 -31.68 240 -48 240 C-48 224.16 -48 208.32 -48 192 C-63.84 192 -79.68 192 -96 192 C-96 160.32 -96 128.64 -96 96 C-80.16 96 -64.32 96 -48 96 C-48 80.16 -48 64.32 -48 48 C-32.16 48 -16.32 48 0 48 C0 32.16 0 16.32 0 0 Z " fill="#000000" transform="translate(97,385)"/>
<path d="M0 0 C31.68 0 63.36 0 96 0 C96 15.84 96 31.68 96 48 C111.84 48 127.68 48 144 48 C144 63.84 144 79.68 144 96 C159.84 96 175.68 96 192 96 C192 127.68 192 159.36 192 192 C176.16 192 160.32 192 144 192 C144 207.84 144 223.68 144 240 C128.16 240 112.32 240 96 240 C96 255.84 96 271.68 96 288 C80.16 288 64.32 288 48 288 C48 272.16 48 256.32 48 240 C32.16 240 16.32 240 0 240 C0 192.48 0 144.96 0 96 C15.84 96 31.68 96 48 96 C48 80.16 48 64.32 48 48 C32.16 48 16.32 48 0 48 C0 32.16 0 16.32 0 0 Z " fill="#FFFFFF" transform="translate(577,385)"/>
<path d="M0 0 C47.52 0 95.04 0 144 0 C144 15.84 144 31.68 144 48 C175.68 48 207.36 48 240 48 C240 63.84 240 79.68 240 96 C208.32 96 176.64 96 144 96 C144 111.84 144 127.68 144 144 C128.16 144 112.32 144 96 144 C96 175.68 96 207.36 96 240 C80.16 240 64.32 240 48 240 C48 224.16 48 208.32 48 192 C32.16 192 16.32 192 0 192 C0 176.16 0 160.32 0 144 C15.84 144 31.68 144 48 144 C48 112.32 48 80.64 48 48 C32.16 48 16.32 48 0 48 C0 32.16 0 16.32 0 0 Z " fill="#000000" transform="translate(97,49)"/>
<path d="M0 0 C15.84 0 31.68 0 48 0 C48 47.52 48 95.04 48 144 C63.84 144 79.68 144 96 144 C96 159.84 96 175.68 96 192 C48.48 192 0.96 192 -48 192 C-48 144.48 -48 96.96 -48 48 C-32.16 48 -16.32 48 0 48 C0 32.16 0 16.32 0 0 Z " fill="#FFFFFF" transform="translate(529,481)"/>
<path d="M0 0 C15.84 0 31.68 0 48 0 C48 15.84 48 31.68 48 48 C63.84 48 79.68 48 96 48 C96 95.52 96 143.04 96 192 C48.48 192 0.96 192 -48 192 C-48 176.16 -48 160.32 -48 144 C-32.16 144 -16.32 144 0 144 C0 96.48 0 48.96 0 0 Z " fill="#FFFFFF" transform="translate(193,481)"/>
<path d="M0 0 C15.84 0 31.68 0 48 0 C48 31.68 48 63.36 48 96 C79.68 96 111.36 96 144 96 C144 111.84 144 127.68 144 144 C128.16 144 112.32 144 96 144 C96 159.84 96 175.68 96 192 C80.16 192 64.32 192 48 192 C48 176.16 48 160.32 48 144 C32.16 144 16.32 144 0 144 C0 96.48 0 48.96 0 0 Z " fill="#000000" transform="translate(577,481)"/>
<path d="M0 0 C47.52 0 95.04 0 144 0 C144 31.68 144 63.36 144 96 C96.48 96 48.96 96 0 96 C0 64.32 0 32.64 0 0 Z " fill="#FFFFFF" transform="translate(1,481)"/>
<path d="M0 0 C31.68 0 63.36 0 96 0 C96 15.84 96 31.68 96 48 C111.84 48 127.68 48 144 48 C144 63.84 144 79.68 144 96 C80.64 96 17.28 96 -48 96 C-48 80.16 -48 64.32 -48 48 C-32.16 48 -16.32 48 0 48 C0 32.16 0 16.32 0 0 Z " fill="#000000" transform="translate(97,385)"/>
<path d="M0 0 C63.36 0 126.72 0 192 0 C192 31.68 192 63.36 192 96 C176.16 96 160.32 96 144 96 C144 80.16 144 64.32 144 48 C112.32 48 80.64 48 48 48 C48 63.84 48 79.68 48 96 C32.16 96 16.32 96 0 96 C0 64.32 0 32.64 0 0 Z " fill="#9E9E9E" transform="translate(289,289)"/>
<path d="M0 0 C15.84 0 31.68 0 48 0 C48 31.68 48 63.36 48 96 C63.84 96 79.68 96 96 96 C96 111.84 96 127.68 96 144 C80.16 144 64.32 144 48 144 C48 159.84 48 175.68 48 192 C32.16 192 16.32 192 0 192 C0 160.32 0 128.64 0 96 C-15.84 96 -31.68 96 -48 96 C-48 80.16 -48 64.32 -48 48 C-32.16 48 -16.32 48 0 48 C0 32.16 0 16.32 0 0 Z " fill="#000000" transform="translate(577,97)"/>
<path d="M0 0 C95.04 0 190.08 0 288 0 C288 15.84 288 31.68 288 48 C192.96 48 97.92 48 0 48 C0 32.16 0 16.32 0 0 Z " fill="#000000" transform="translate(241,1)"/>
<path d="M0 0 C31.68 0 63.36 0 96 0 C96 15.84 96 31.68 96 48 C111.84 48 127.68 48 144 48 C144 63.84 144 79.68 144 96 C112.32 96 80.64 96 48 96 C48 80.16 48 64.32 48 48 C32.16 48 16.32 48 0 48 C0 32.16 0 16.32 0 0 Z " fill="#000000" transform="translate(577,385)"/>
<path d="M0 0 C15.84 0 31.68 0 48 0 C48 47.52 48 95.04 48 144 C32.16 144 16.32 144 0 144 C0 96.48 0 48.96 0 0 Z " fill="#000000" transform="translate(673,241)"/>
<path d="M0 0 C15.84 0 31.68 0 48 0 C48 47.52 48 95.04 48 144 C32.16 144 16.32 144 0 144 C0 96.48 0 48.96 0 0 Z " fill="#000000" transform="translate(49,241)"/>
<path d="M0 0 C47.52 0 95.04 0 144 0 C144 15.84 144 31.68 144 48 C96.48 48 48.96 48 0 48 C0 32.16 0 16.32 0 0 Z " fill="#000000" transform="translate(385,97)"/>
<path d="M0 0 C31.68 0 63.36 0 96 0 C96 15.84 96 31.68 96 48 C64.32 48 32.64 48 0 48 C0 32.16 0 16.32 0 0 Z " fill="#9E9E9E" transform="translate(337,577)"/>
<path d="M0 0 C15.84 0 31.68 0 48 0 C48 31.68 48 63.36 48 96 C32.16 96 16.32 96 0 96 C0 64.32 0 32.64 0 0 Z " fill="#000000" transform="translate(721,481)"/>
<path d="M0 0 C15.84 0 31.68 0 48 0 C48 31.68 48 63.36 48 96 C32.16 96 16.32 96 0 96 C0 64.32 0 32.64 0 0 Z " fill="#000000" transform="translate(1,481)"/>
<path d="M0 0 C31.68 0 63.36 0 96 0 C96 15.84 96 31.68 96 48 C64.32 48 32.64 48 0 48 C0 32.16 0 16.32 0 0 Z " fill="#9E9E9E" transform="translate(337,433)"/>
<path d="M0 0 C15.84 0 31.68 0 48 0 C48 31.68 48 63.36 48 96 C32.16 96 16.32 96 0 96 C0 64.32 0 32.64 0 0 Z " fill="#000000" transform="translate(433,289)"/>
<path d="M0 0 C15.84 0 31.68 0 48 0 C48 31.68 48 63.36 48 96 C32.16 96 16.32 96 0 96 C0 64.32 0 32.64 0 0 Z " fill="#000000" transform="translate(289,289)"/>
<path d="M0 0 C31.68 0 63.36 0 96 0 C96 15.84 96 31.68 96 48 C64.32 48 32.64 48 0 48 C0 32.16 0 16.32 0 0 Z " fill="#000000" transform="translate(241,97)"/>
<path d="M0 0 C15.84 0 31.68 0 48 0 C48 15.84 48 31.68 48 48 C32.16 48 16.32 48 0 48 C0 32.16 0 16.32 0 0 Z " fill="#FFFFFF" transform="translate(577,433)"/>
<path d="M0 0 C15.84 0 31.68 0 48 0 C48 15.84 48 31.68 48 48 C32.16 48 16.32 48 0 48 C0 32.16 0 16.32 0 0 Z " fill="#000000" transform="translate(529,433)"/>
<path d="M0 0 C15.84 0 31.68 0 48 0 C48 15.84 48 31.68 48 48 C32.16 48 16.32 48 0 48 C0 32.16 0 16.32 0 0 Z " fill="#000000" transform="translate(193,433)"/>
<path d="M0 0 C15.84 0 31.68 0 48 0 C48 15.84 48 31.68 48 48 C32.16 48 16.32 48 0 48 C0 32.16 0 16.32 0 0 Z " fill="#FFFFFF" transform="translate(145,433)"/>
<path d="M0 0 C15.84 0 31.68 0 48 0 C48 15.84 48 31.68 48 48 C32.16 48 16.32 48 0 48 C0 32.16 0 16.32 0 0 Z " fill="#9E9E9E" transform="translate(577,337)"/>
<path d="M0 0 C15.84 0 31.68 0 48 0 C48 15.84 48 31.68 48 48 C32.16 48 16.32 48 0 48 C0 32.16 0 16.32 0 0 Z " fill="#9E9E9E" transform="translate(145,337)"/>
<path d="M0 0 C15.84 0 31.68 0 48 0 C48 15.84 48 31.68 48 48 C32.16 48 16.32 48 0 48 C0 32.16 0 16.32 0 0 Z " fill="#9E9E9E" transform="translate(481,241)"/>
<path d="M0 0 C15.84 0 31.68 0 48 0 C48 15.84 48 31.68 48 48 C32.16 48 16.32 48 0 48 C0 32.16 0 16.32 0 0 Z " fill="#9E9E9E" transform="translate(241,241)"/>
<path d="M0 0 C15.84 0 31.68 0 48 0 C48 15.84 48 31.68 48 48 C32.16 48 16.32 48 0 48 C0 32.16 0 16.32 0 0 Z " fill="#000000" transform="translate(337,145)"/>
<path d="M0 0 C15.84 0 31.68 0 48 0 C48 15.84 48 31.68 48 48 C32.16 48 16.32 48 0 48 C0 32.16 0 16.32 0 0 Z " fill="#FFFFFF" transform="translate(529,97)"/>
<path d="M0 0 C15.84 0 31.68 0 48 0 C48 15.84 48 31.68 48 48 C32.16 48 16.32 48 0 48 C0 32.16 0 16.32 0 0 Z " fill="#FFFFFF" transform="translate(193,97)"/>
<path d="M0 0 C15.84 0 31.68 0 48 0 C48 15.84 48 31.68 48 48 C32.16 48 16.32 48 0 48 C0 32.16 0 16.32 0 0 Z " fill="#000000" transform="translate(529,49)"/>
</svg>
